<svg xmlns="http://www.w3.org/2000/svg" width="206.952" height="193.155" viewBox="0 0 206.952 193.155"><defs><style>.a{fill:#fff;}</style></defs><g transform="translate(0 0)"><g transform="translate(0 0)"><g transform="translate(27.594)"><path class="a" d="M177.46,108.925V12.348A3.459,3.459,0,0,0,174.011,8.9H15.348A3.459,3.459,0,0,0,11.9,12.348V39.941A3.45,3.45,0,0,1,8.449,43.39h0A3.45,3.45,0,0,1,5,39.941V12.348A10.36,10.36,0,0,1,15.348,2H174.011a10.36,10.36,0,0,1,10.348,10.348v96.578a3.45,3.45,0,0,1-3.449,3.449h0A3.45,3.45,0,0,1,177.46,108.925Z" transform="translate(-5 -2)"/></g><g transform="translate(27.594)"><path class="a" d="M180.909,36.492H8.449A3.45,3.45,0,0,1,5,33.043v-20.7A10.36,10.36,0,0,1,15.348,2H174.011a10.36,10.36,0,0,1,10.348,10.348v20.7A3.45,3.45,0,0,1,180.909,36.492ZM11.9,29.594H177.46V12.348A3.459,3.459,0,0,0,174.011,8.9H15.348A3.459,3.459,0,0,0,11.9,12.348Z" transform="translate(-5 -2)"/></g><g transform="translate(0 48.289)"><path class="a" d="M11.348,153.866A10.36,10.36,0,0,1,1,143.519V19.348A10.36,10.36,0,0,1,11.348,9H170.011a10.36,10.36,0,0,1,10.348,10.348V53.84a3.45,3.45,0,0,1-3.449,3.449h0a3.45,3.45,0,0,1-3.449-3.449V19.348a3.459,3.459,0,0,0-3.449-3.449H11.348A3.459,3.459,0,0,0,7.9,19.348V143.519a3.459,3.459,0,0,0,3.449,3.449H170.011a3.459,3.459,0,0,0,3.449-3.449v-1.725c0-.952,1.545-1.725,3.449-1.725h0c1.9,0,3.449.773,3.449,1.725v1.725a10.36,10.36,0,0,1-10.348,10.348Z" transform="translate(-1 -9)"/></g><g transform="translate(0 48.289)"><path class="a" d="M176.909,43.492H4.449A3.45,3.45,0,0,1,1,40.043v-20.7A10.36,10.36,0,0,1,11.348,9H170.011a10.36,10.36,0,0,1,10.348,10.348v20.7A3.45,3.45,0,0,1,176.909,43.492ZM7.9,36.594H173.46V19.348a3.459,3.459,0,0,0-3.449-3.449H11.348A3.459,3.459,0,0,0,7.9,19.348Z" transform="translate(-1 -9)"/></g><g transform="translate(137.968 103.476)"><path class="a" d="M55.492,85.984A34.492,34.492,0,1,1,89.984,51.492,34.531,34.531,0,0,1,55.492,85.984Zm0-62.086A27.594,27.594,0,1,0,83.086,51.492,27.63,27.63,0,0,0,55.492,23.9Z" transform="translate(-21 -17)"/></g><g transform="translate(68.984 13.797)"><circle class="a" cx="3.449" cy="3.449" r="3.449"/></g><g transform="translate(55.187 13.797)"><circle class="a" cx="3.449" cy="3.449" r="3.449"/></g><g transform="translate(41.39 13.797)"><circle class="a" cx="3.449" cy="3.449" r="3.449"/></g><g transform="translate(41.39 62.086)"><circle class="a" cx="3.449" cy="3.449" r="3.449"/></g><g transform="translate(27.594 62.086)"><circle class="a" cx="3.449" cy="3.449" r="3.449"/></g><g transform="translate(13.797 62.086)"><circle class="a" cx="3.449" cy="3.449" r="3.449"/></g><g transform="translate(117.273 165.562)"><path class="a" d="M38.7,29.449A3.459,3.459,0,0,1,35.246,32.9h-13.8A3.459,3.459,0,0,1,18,29.449h0A3.459,3.459,0,0,1,21.449,26h13.8A3.459,3.459,0,0,1,38.7,29.449Z" transform="translate(-18 -26)"/></g><g transform="translate(62.086 165.562)"><path class="a" d="M58.289,29.449A3.459,3.459,0,0,1,54.84,32.9H13.449A3.459,3.459,0,0,1,10,29.449h0A3.459,3.459,0,0,1,13.449,26H54.84a3.459,3.459,0,0,1,3.449,3.449Z" transform="translate(-10 -26)"/></g><g transform="translate(27.594 165.562)"><path class="a" d="M32.594,29.449A3.459,3.459,0,0,1,29.144,32.9H8.449A3.459,3.459,0,0,1,5,29.449H5A3.459,3.459,0,0,1,8.449,26h20.7a3.459,3.459,0,0,1,3.449,3.449Z" transform="translate(-5 -26)"/></g><g transform="translate(75.882 151.765)"><path class="a" d="M67.187,27.449A3.459,3.459,0,0,1,63.738,30.9H15.449A3.459,3.459,0,0,1,12,27.449h0A3.459,3.459,0,0,1,15.449,24H63.738a3.459,3.459,0,0,1,3.449,3.449Z" transform="translate(-12 -24)"/></g><g transform="translate(27.594 151.765)"><path class="a" d="M46.39,27.449A3.459,3.459,0,0,1,42.941,30.9H8.449A3.459,3.459,0,0,1,5,27.449H5A3.459,3.459,0,0,1,8.449,24H42.941a3.459,3.459,0,0,1,3.449,3.449Z" transform="translate(-5 -24)"/></g><g transform="translate(13.797 137.968)"><path class="a" d="M30.594,25.449A3.459,3.459,0,0,1,27.144,28.9H6.449A3.459,3.459,0,0,1,3,25.449H3A3.459,3.459,0,0,1,6.449,22h20.7a3.459,3.459,0,0,1,3.449,3.449Z" transform="translate(-3 -22)"/></g><g transform="translate(75.882 124.171)"><path class="a" d="M60.289,23.449A3.459,3.459,0,0,1,56.84,26.9H15.449A3.459,3.459,0,0,1,12,23.449h0A3.459,3.459,0,0,1,15.449,20H56.84a3.459,3.459,0,0,1,3.449,3.449Z" transform="translate(-12 -20)"/></g><g transform="translate(48.289 124.171)"><path class="a" d="M28.7,23.449A3.459,3.459,0,0,1,25.246,26.9h-13.8A3.459,3.459,0,0,1,8,23.449H8A3.459,3.459,0,0,1,11.449,20h13.8A3.459,3.459,0,0,1,28.7,23.449Z" transform="translate(-8 -20)"/></g><g transform="translate(27.594 124.171)"><path class="a" d="M18.8,23.449A3.459,3.459,0,0,1,15.348,26.9h-6.9A3.459,3.459,0,0,1,5,23.449H5A3.459,3.459,0,0,1,8.449,20h6.9A3.459,3.459,0,0,1,18.8,23.449Z" transform="translate(-5 -20)"/></g><g transform="translate(110.374 110.374)"><path class="a" d="M30.8,21.449A3.459,3.459,0,0,1,27.348,24.9h-6.9A3.459,3.459,0,0,1,17,21.449h0A3.459,3.459,0,0,1,20.449,18h6.9A3.459,3.459,0,0,1,30.8,21.449Z" transform="translate(-17 -18)"/></g><g transform="translate(68.984 110.374)"><path class="a" d="M45.492,21.449A3.459,3.459,0,0,1,42.043,24.9H14.449A3.459,3.459,0,0,1,11,21.449h0A3.459,3.459,0,0,1,14.449,18H42.043a3.459,3.459,0,0,1,3.449,3.449Z" transform="translate(-11 -18)"/></g><g transform="translate(27.594 110.374)"><path class="a" d="M39.492,21.449A3.459,3.459,0,0,1,36.043,24.9H8.449A3.459,3.459,0,0,1,5,21.449H5A3.459,3.459,0,0,1,8.449,18H36.043a3.459,3.459,0,0,1,3.449,3.449Z" transform="translate(-5 -18)"/></g><g transform="translate(13.797 96.578)"><path class="a" d="M30.594,19.449A3.459,3.459,0,0,1,27.144,22.9H6.449A3.459,3.459,0,0,1,3,19.449H3A3.459,3.459,0,0,1,6.449,16h20.7a3.459,3.459,0,0,1,3.449,3.449Z" transform="translate(-3 -16)"/></g></g></g></svg>