<svg xmlns="http://www.w3.org/2000/svg" width="209.715" height="193.155" viewBox="0 0 209.715 193.155"><defs><style>.a{fill:#fff;}</style></defs><g transform="translate(0 0)"><path class="a" d="M221.089,155a9.236,9.236,0,0,0-6.193,0h0a9.345,9.345,0,0,0-3.494,2.2l-29.763,29.732a9.308,9.308,0,0,0-2.258,9.563l4.932,14.78,5.908-1.968-4.927-14.785a3.115,3.115,0,0,1,.753-3.188l28.833-28.8v35.852a12.33,12.33,0,1,0,6.23,0V162.532l28.828,28.833a3.115,3.115,0,0,1,.753,3.188L234.182,244.08h-32.39l-7.912-23.767a3.115,3.115,0,1,0-5.908,1.968l7.377,22.126a10.762,10.762,0,0,0-8.125,10.419v3.156a10.762,10.762,0,0,0,10.752,10.751h3.073V290.5a9.345,9.345,0,0,0,9.345,9.345h15.2a9.345,9.345,0,0,0,9.345-9.345V268.734h3.073a10.762,10.762,0,0,0,10.752-10.751v-3.156a10.762,10.762,0,0,0-8.125-10.419L256.6,196.516a9.3,9.3,0,0,0-2.258-9.583L224.6,157.185a9.345,9.345,0,0,0-3.489-2.2h0Zm7.616,135.5a3.115,3.115,0,0,1-3.115,3.115h-15.2a3.115,3.115,0,0,1-3.115-3.115V268.734h21.425Zm13.825-35.676v3.156a4.527,4.527,0,0,1-4.522,4.522H197.977a4.527,4.527,0,0,1-4.522-4.522v-3.156a4.532,4.532,0,0,1,4.522-4.527h40.031a4.532,4.532,0,0,1,4.522,4.527Zm-18.414-44.532a6.105,6.105,0,1,1-6.1-6.105,6.105,6.105,0,0,1,6.1,6.105Z" transform="translate(-113.127 -129.246)"/><path class="a" d="M258.831,191.083h-6.489a3.058,3.058,0,0,0,.374-1.952,96.562,96.562,0,0,0-191.327.348,3.115,3.115,0,0,0,.208,1.6H55.325A3.115,3.115,0,0,0,52.21,194.2v16.613a3.115,3.115,0,0,0,3.115,3.115h6.157a3,3,0,0,0-.125,1.365,96.463,96.463,0,0,0,16.9,42.975,3.115,3.115,0,1,0,5.082-3.6A90.29,90.29,0,0,1,67.53,214.471a3.194,3.194,0,0,0-.125-.545h4.532a3.115,3.115,0,0,0,3.115-3.115V194.2a3.115,3.115,0,0,0-3.115-3.115H67.343a3.188,3.188,0,0,0,.218-.768,90.332,90.332,0,0,1,178.987-.327,3.043,3.043,0,0,0,.369,1.1h-4.7A3.115,3.115,0,0,0,239.1,194.2v16.613a3.115,3.115,0,0,0,3.115,3.115h4.563a3.175,3.175,0,0,0-.213.768A90.332,90.332,0,0,1,89.905,262.9a3.115,3.115,0,1,0-4.631,4.153,96.561,96.561,0,0,0,167.467-51.536,3.115,3.115,0,0,0-.208-1.6h6.276a3.115,3.115,0,0,0,3.115-3.115V194.2a3.115,3.115,0,0,0-3.094-3.115ZM68.823,207.7H58.44V197.313H68.823Zm186.893,0H245.333V197.313h10.383Z" transform="translate(-52.21 -105.882)"/></g></svg>