<svg xmlns="http://www.w3.org/2000/svg" width="189.434" height="193.155" viewBox="0 0 189.434 193.155"><defs><style>.a{fill:#fff;}</style></defs><g transform="translate(0 0)"><g transform="translate(0 0)"><path class="a" d="M66.073,16.1C39.35,16.1,18.038,37.75,17.7,64.473a48.208,48.208,0,0,0,27.062,43.3V148.7h5.412l6.089,17.929H76.222l.677-2.368L81.972,148.7h5.412V107.773a49.043,49.043,0,0,0,27.062-43.3C114.109,37.75,92.8,16.1,66.073,16.1ZM51.528,141.6V130.437H80.619V141.6Zm19.62,17.929H61l-3.721-11.163h17.59Zm11.5-57.169-2.03,1.015V124.01H69.456V91.2a9.633,9.633,0,0,0,6.089-8.8,9.472,9.472,0,0,0-18.943,0,9.154,9.154,0,0,0,6.089,8.8V124.01H51.528V103.375L49.5,102.36C34.952,95.933,24.466,81.387,24.8,64.473a42.292,42.292,0,0,1,12.178-29.43,41.682,41.682,0,0,1,29.43-12.178,42.292,42.292,0,0,1,29.43,12.178,41.681,41.681,0,0,1,12.178,29.43A42.589,42.589,0,0,1,82.649,102.36ZM66.073,84.77a2.706,2.706,0,1,1,2.706-2.706A2.668,2.668,0,0,1,66.073,84.77Z" transform="translate(28.644 26.523)"/><rect class="a" width="6.766" height="23.679" transform="translate(91.334)"/><rect class="a" width="23.679" height="6.766" transform="translate(165.755 91.334)"/><rect class="a" width="23.679" height="6.766" transform="translate(0 91.334)"/><rect class="a" width="23.679" height="6.766" transform="translate(142.56 42.211) rotate(-45)"/><rect class="a" width="6.766" height="23.679" transform="translate(25.448 30.177) rotate(-45)"/></g></g></svg>