<svg xmlns="http://www.w3.org/2000/svg" width="50.764" height="50.763" viewBox="0 0 50.764 50.763"><defs><style>.a{fill:#fff;}</style></defs><g transform="translate(0)"><path class="a" d="M38.142,27.257a3.787,3.787,0,0,0-3.726,3.265h6.956A3.151,3.151,0,0,0,38.142,27.257Z" transform="translate(-2.778 -4.419)"/><path class="a" d="M22.905,30.425H16.739v5.661H22.2c.093,0,.232,0,.395,0,.878-.021,2.543-.276,2.543-2.752C25.136,30.4,22.905,30.425,22.905,30.425Z" transform="translate(-3.322 -4.322)"/><path class="a" d="M29.106,5.1A25.382,25.382,0,1,0,54.487,30.482,25.381,25.381,0,0,0,29.106,5.1Zm5.343,15.6h8.738V23.3H34.448Zm-4.417,13.68c0,6.464-6.726,6.251-6.726,6.251H12.285V19.449H23.306c3.348,0,5.991,1.849,5.991,5.638s-3.231,4.03-3.231,4.03C30.325,29.118,30.031,34.377,30.031,34.377Zm16.346-.346H35.4a3.446,3.446,0,0,0,3.726,3.686c3.519,0,3.4-2.279,3.4-2.279h3.728c0,6.048-7.249,5.633-7.249,5.633-8.7,0-8.136-8.1-8.136-8.1S30.86,24.838,39,24.838C47.577,24.838,46.378,34.031,46.378,34.031Z" transform="translate(-3.723 -5.101)"/><path class="a" d="M24.4,24.876c0-2.2-1.5-2.2-1.5-2.2H16.739V27.4h5.784C23.52,27.4,24.4,27.077,24.4,24.876Z" transform="translate(-3.322 -4.56)"/></g></svg>