<svg xmlns="http://www.w3.org/2000/svg" width="50.591" height="50.591" viewBox="0 0 50.591 50.591"><defs><style>.a{fill:#fff;fill-rule:evenodd;}</style></defs><path class="a" d="M43.492,41.215V31.34c0-5.291-2.825-7.753-6.59-7.753a5.682,5.682,0,0,0-5.159,2.845v-2.44H26.017c.076,1.616,0,17.224,0,17.224h5.725V31.6a3.9,3.9,0,0,1,.189-1.4,3.131,3.131,0,0,1,2.936-2.094c2.073,0,2.9,1.579,2.9,3.894v9.215h5.724ZM19.986,21.641a2.985,2.985,0,1,0,.038-5.952,2.984,2.984,0,1,0-.074,5.952Zm9.31,32.95a25.3,25.3,0,1,1,25.3-25.3A25.3,25.3,0,0,1,29.3,54.591ZM22.848,41.215V23.992H17.124V41.215Z" transform="translate(-4 -4)"/></svg>